<svg width="130" height="27" viewBox="0 0 130 27" fill="none" xmlns="http://www.w3.org/2000/svg">
<path d="M40.2455 8.74495C41.3894 8.74495 42.3005 9.11737 42.9789 9.86223C43.6705 10.6071 44.0163 11.6047 44.0163 12.8549V19H41.4426V13.0345C41.4426 12.436 41.2963 11.9704 41.0037 11.6379C40.7111 11.3054 40.2987 11.1391 39.7667 11.1391C39.1814 11.1391 38.7226 11.332 38.39 11.7177C38.0708 12.1034 37.9112 12.6621 37.9112 13.3936V19H35.3375V13.0345C35.3375 12.436 35.1911 11.9704 34.8985 11.6379C34.6059 11.3054 34.1936 11.1391 33.6615 11.1391C33.0896 11.1391 32.6307 11.332 32.2849 11.7177C31.9524 12.1034 31.7861 12.6621 31.7861 13.3936V19H29.2124V9.02427H31.7861V10.0817C32.3846 9.19053 33.3091 8.74495 34.5593 8.74495C35.783 8.74495 36.6875 9.22378 37.2727 10.1815C37.9378 9.22378 38.9287 8.74495 40.2455 8.74495ZM48.377 15.0696C48.7228 16.3199 49.6605 16.945 51.1901 16.945C52.1744 16.945 52.9193 16.6125 53.4247 15.9474L55.4997 17.1445C54.5154 18.5677 53.0656 19.2793 51.1502 19.2793C49.5009 19.2793 48.1775 18.7805 47.1799 17.783C46.1823 16.7854 45.6835 15.5284 45.6835 14.0121C45.6835 12.5091 46.1757 11.2588 47.1599 10.2613C48.1442 9.25038 49.4078 8.74495 50.9507 8.74495C52.4138 8.74495 53.6176 9.25038 54.5619 10.2613C55.5196 11.2721 55.9984 12.5224 55.9984 14.0121C55.9984 14.3447 55.9652 14.6971 55.8987 15.0696H48.377ZM48.3371 13.0744H53.4247C53.2784 12.3961 52.9725 11.8906 52.5069 11.5581C52.0547 11.2256 51.536 11.0593 50.9507 11.0593C50.2591 11.0593 49.6871 11.2389 49.2349 11.598C48.7827 11.9438 48.4834 12.436 48.3371 13.0744ZM63.3417 8.74495C64.4324 8.74495 65.3302 9.11072 66.0351 9.84228C66.7534 10.5738 67.1125 11.5847 67.1125 12.8749V19H64.5388V13.1941C64.5388 12.5291 64.3592 12.0236 64.0001 11.6778C63.6409 11.3187 63.1621 11.1391 62.5636 11.1391C61.8985 11.1391 61.3665 11.3453 60.9675 11.7576C60.5684 12.1699 60.3689 12.7884 60.3689 13.6131V19H57.7952V9.02427H60.3689V10.1415C60.9941 9.21048 61.985 8.74495 63.3417 8.74495ZM75.8941 9.02427H78.4679V19H75.8941V17.8827C75.269 18.8138 74.278 19.2793 72.9213 19.2793C71.8307 19.2793 70.9262 18.9135 70.2079 18.182C69.503 17.4504 69.1505 16.4396 69.1505 15.1494V9.02427H71.7243V14.8301C71.7243 15.4952 71.9038 16.0073 72.2629 16.3664C72.6221 16.7122 73.1009 16.8851 73.6995 16.8851C74.3645 16.8851 74.8965 16.679 75.2956 16.2666C75.6946 15.8543 75.8941 15.2358 75.8941 14.4112V9.02427Z" fill="#FA2828"/>
<path d="M86.631 8.74495C87.9744 8.74495 89.1182 9.25703 90.0626 10.2812C91.0203 11.2921 91.4991 12.5357 91.4991 14.0121C91.4991 15.4885 91.0203 16.7388 90.0626 17.763C89.1182 18.7739 87.9744 19.2793 86.631 19.2793C85.2344 19.2793 84.157 18.7938 83.3988 17.8229V22.9903H80.8251V9.02427H83.3988V10.2014C84.157 9.23043 85.2344 8.74495 86.631 8.74495ZM84.1769 16.0472C84.6957 16.5659 85.3541 16.8253 86.1521 16.8253C86.9502 16.8253 87.6086 16.5659 88.1273 16.0472C88.6594 15.5151 88.9254 14.8368 88.9254 14.0121C88.9254 13.1875 88.6594 12.5158 88.1273 11.997C87.6086 11.465 86.9502 11.199 86.1521 11.199C85.3541 11.199 84.6957 11.465 84.1769 11.997C83.6582 12.5158 83.3988 13.1875 83.3988 14.0121C83.3988 14.8368 83.6582 15.5151 84.1769 16.0472ZM100.896 9.02427H103.47V19H100.896V17.8229C100.124 18.7938 99.0403 19.2793 97.6437 19.2793C96.3136 19.2793 95.1697 18.7739 94.2121 17.763C93.2677 16.7388 92.7955 15.4885 92.7955 14.0121C92.7955 12.5357 93.2677 11.2921 94.2121 10.2812C95.1697 9.25703 96.3136 8.74495 97.6437 8.74495C99.0403 8.74495 100.124 9.23043 100.896 10.2014V9.02427ZM96.1473 16.0472C96.6661 16.5659 97.3245 16.8253 98.1225 16.8253C98.9206 16.8253 99.579 16.5659 100.098 16.0472C100.63 15.5151 100.896 14.8368 100.896 14.0121C100.896 13.1875 100.63 12.5158 100.098 11.997C99.579 11.465 98.9206 11.199 98.1225 11.199C97.3245 11.199 96.6661 11.465 96.1473 11.997C95.6286 12.5158 95.3692 13.1875 95.3692 14.0121C95.3692 14.8368 95.6286 15.5151 96.1473 16.0472ZM113.365 5.03397H115.939V19H113.365V17.8229C112.607 18.7938 111.529 19.2793 110.133 19.2793C108.789 19.2793 107.639 18.7739 106.681 17.763C105.737 16.7388 105.265 15.4885 105.265 14.0121C105.265 12.5357 105.737 11.2921 106.681 10.2812C107.639 9.25703 108.789 8.74495 110.133 8.74495C111.529 8.74495 112.607 9.23043 113.365 10.2014V5.03397ZM108.617 16.0472C109.149 16.5659 109.814 16.8253 110.612 16.8253C111.41 16.8253 112.068 16.5659 112.587 16.0472C113.106 15.5151 113.365 14.8368 113.365 14.0121C113.365 13.1875 113.106 12.5158 112.587 11.997C112.068 11.465 111.41 11.199 110.612 11.199C109.814 11.199 109.149 11.465 108.617 11.997C108.098 12.5158 107.838 13.1875 107.838 14.0121C107.838 14.8368 108.098 15.5151 108.617 16.0472Z" fill="#FFAB20"/>
<path fill-rule="evenodd" clip-rule="evenodd" d="M0 13.5798C0 4.04383 2.04383 2 11.5798 2C19.5858 2 22.3109 3.44061 22.9792 9.54599C21.0432 9.46796 19.21 9.53565 17.4624 9.60019C16.5262 9.63476 15.6146 9.66843 14.7249 9.6783C13.6443 9.69027 12.9659 9.22852 12.3612 8.69538C12.2615 8.60753 12.1659 8.51763 12.0701 8.42755L12.0701 8.42753C11.399 7.7964 10.7188 7.15679 8.57748 7.15679C7.88939 7.16057 7.20736 7.28131 6.5626 7.51346C5.93196 7.72956 5.3861 8.12905 5.00006 8.65702C4.61402 9.18498 4.40675 9.81549 4.40675 10.4619C4.40675 11.1083 4.61402 11.7388 5.00006 12.2667C5.3861 12.7947 5.93196 13.1942 6.5626 13.4103C7.20736 13.6424 7.88939 13.7632 8.57748 13.767C10.7188 13.767 11.399 13.1274 12.0701 12.4962L12.0701 12.4962C12.1659 12.4061 12.2615 12.3162 12.3612 12.2284C12.9659 11.6952 13.6443 11.2335 14.7249 11.2455C15.7351 11.2567 16.8511 11.3018 18.0095 11.3486L18.0095 11.3486C19.6877 11.4164 21.4549 11.4878 23.1189 11.465C23.1469 12.1253 23.1595 12.8293 23.1595 13.5798C23.1595 15.1024 23.1074 16.4341 22.981 17.5969C21.4955 17.6477 20.2594 17.7105 19.1164 17.7687C17.5382 17.8489 16.1374 17.9202 14.5023 17.9381C14.0501 17.9446 13.6017 17.86 13.187 17.6898C12.7722 17.5197 12.4008 17.268 12.0976 16.9515C11.0711 15.9939 9.98268 15.8257 7.30979 16.0716L4.74629 16.3075C4.65332 16.3161 4.56706 16.3569 4.50431 16.4222C4.44155 16.4875 4.40678 16.5724 4.40678 16.6605V16.6782C4.40678 16.7723 4.4464 16.8625 4.51691 16.929C4.58742 16.9956 4.68306 17.0329 4.78278 17.0329H9.40642C9.50993 17.0232 9.61339 17.0519 9.69474 17.1131C9.77609 17.1743 9.82889 17.263 9.84188 17.3603C9.82889 17.4577 9.77609 17.5464 9.69474 17.6076C9.61339 17.6688 9.50993 17.6975 9.40642 17.6878L4.78278 17.6878C4.68323 17.688 4.58785 17.7255 4.51756 17.792C4.44726 17.8585 4.40778 17.9486 4.40778 18.0425C4.40778 18.1364 4.44726 18.2265 4.51756 18.293C4.58785 18.3594 4.68323 18.3969 4.78278 18.3972H9.40642C9.50993 18.3874 9.61339 18.4162 9.69474 18.4773C9.77609 18.5385 9.82889 18.6272 9.84188 18.7246C9.82889 18.822 9.77609 18.9107 9.69474 18.9718C9.61339 19.033 9.50993 19.0618 9.40642 19.052H4.78278C4.68323 19.0522 4.58785 19.0897 4.51756 19.1562C4.44726 19.2227 4.40778 19.3128 4.40778 19.4067C4.40778 19.5006 4.44726 19.5907 4.51756 19.6572C4.58785 19.7237 4.68323 19.7612 4.78278 19.7614H9.40642C9.50993 19.7516 9.61339 19.7804 9.69474 19.8416C9.77609 19.9027 9.82889 19.9915 9.84188 20.0888C9.82889 20.1862 9.77609 20.2749 9.69474 20.3361C9.61339 20.3973 9.50993 20.426 9.40642 20.4162H4.78278C4.7334 20.4162 4.68451 20.4254 4.63889 20.4432C4.59327 20.4611 4.55183 20.4872 4.51691 20.5201C4.482 20.5531 4.4543 20.5922 4.4354 20.6352C4.41651 20.6782 4.40678 20.7244 4.40678 20.771V20.7887C4.40679 20.8768 4.44156 20.9617 4.50431 21.027C4.56707 21.0922 4.65333 21.1331 4.74629 21.1417L7.30979 21.3775C9.98269 21.6235 11.0711 21.4553 12.0975 20.4977C12.4008 20.1812 12.7722 19.9295 13.187 19.7593C13.6017 19.5892 14.0501 19.5046 14.5023 19.5111C14.9916 19.5164 15.4599 19.5203 15.9182 19.5241C18.0106 19.5415 19.8957 19.5571 22.6227 19.7033C21.5413 24.0587 18.5782 25.1595 11.5798 25.1595C2.04383 25.1595 0 23.1157 0 13.5798Z" fill="url(#paint0_linear)"/>
<defs>
<linearGradient id="paint0_linear" x1="3.29083" y1="4.82071" x2="19.98" y2="24.3306" gradientUnits="userSpaceOnUse">
<stop stop-color="#FA2829"/>
<stop offset="1" stop-color="#EDB251"/>
</linearGradient>
</defs>
</svg>
